<?xml version="1.0" standalone="no"?>
<!DOCTYPE svg PUBLIC "-//W3C//DTD SVG 20010904//EN"
 "http://www.w3.org/TR/2001/REC-SVG-20010904/DTD/svg10.dtd">
<svg version="1.0" xmlns="http://www.w3.org/2000/svg"
 width="3000.000000pt" height="3000.000000pt" viewBox="0 0 3000.000000 3000.000000"
 preserveAspectRatio="xMidYMid meet">

<g transform="translate(0.000000,3000.000000) scale(0.100000,-0.100000)"
fill="#000000" stroke="none">
<path d="M10190 27933 c-285 -50 -573 -214 -756 -433 -77 -92 -164 -232 -203
-324 -17 -40 -577 -1693 -1245 -3672 -668 -1980 -2443 -7241 -3946 -11693
-1502 -4452 -2740 -8131 -2751 -8175 -60 -253 -38 -534 61 -782 73 -183 203
-364 355 -494 161 -138 366 -238 585 -286 82 -18 201 -19 3420 -19 2708 0
3347 2 3400 13 419 84 766 352 939 723 22 46 395 1139 830 2428 435 1290 793
2347 796 2349 6 6 -252 246 2895 -2693 1477 -1378 2723 -2536 2770 -2571 141
-107 327 -189 520 -231 73 -15 133 -18 420 -18 373 1 383 2 587 81 277 107
527 332 665 600 101 196 138 335 145 555 9 247 3 270 -227 954 -224 666 -2224
6589 -2293 6790 l-44 130 -2112 3 c-1161 1 -2111 4 -2111 6 0 3 1020 3024
1585 4696 196 580 395 1168 441 1305 l85 250 -1546 4580 c-850 2519 -1589
4706 -1641 4860 -52 154 -112 316 -134 361 -177 366 -539 640 -938 709 -112
20 -435 19 -552 -2z"/>
</g>
</svg>
