<?xml version="1.0" standalone="no"?>
<!DOCTYPE svg PUBLIC "-//W3C//DTD SVG 20010904//EN"
 "http://www.w3.org/TR/2001/REC-SVG-20010904/DTD/svg10.dtd">
<svg version="1.0" xmlns="http://www.w3.org/2000/svg"
 width="1024.000000pt" height="823.000000pt" viewBox="0 0 1024.000000 823.000000"
 preserveAspectRatio="xMidYMid meet">

<g transform="translate(0.000000,823.000000) scale(0.100000,-0.100000)"
fill="#000000" stroke="none">
<path d="M1 5603 c1 -1488 5 -2580 10 -2518 32 427 155 843 355 1199 284 507
724 931 1230 1185 451 226 944 328 1452 300 194 -11 267 -21 456 -65 556 -129
1019 -382 1410 -768 111 -110 256 -275 256 -292 0 -5 -287 -296 -639 -648
l-638 -638 -46 80 c-120 207 -279 357 -488 456 -699 335 -1509 -120 -1590
-894 -40 -387 142 -786 464 -1013 130 -92 268 -155 417 -190 95 -22 100 -22
1278 -25 l1182 -3 0 -880 0 -880 -1262 4 c-1229 3 -1267 4 -1393 24 -459 75
-834 226 -1240 501 -150 101 -236 175 -400 344 -482 494 -767 1146 -808 1848
-2 30 -4 -572 -5 -1337 l-2 -1393 5120 0 5120 0 0 4115 0 4115 -5120 0 -5120
0 1 -2627z"/>
</g>
</svg>
