<?xml version="1.0" standalone="no"?>
<!DOCTYPE svg PUBLIC "-//W3C//DTD SVG 20010904//EN"
 "http://www.w3.org/TR/2001/REC-SVG-20010904/DTD/svg10.dtd">
<svg version="1.0" xmlns="http://www.w3.org/2000/svg"
 width="225.000000pt" height="225.000000pt" viewBox="0 0 225.000000 225.000000"
 preserveAspectRatio="xMidYMid meet">

<g transform="translate(0.000000,225.000000) scale(0.100000,-0.100000)"
fill="#000000" stroke="none">
<path d="M945 2004 c-91 -20 -204 -64 -285 -111 -85 -50 -253 -218 -303 -303
-93 -160 -132 -321 -124 -504 10 -242 100 -440 273 -607 114 -109 217 -169
371 -216 80 -24 103 -27 248 -27 145 0 168 3 248 27 154 47 257 107 371 216
119 114 193 236 243 398 24 80 27 103 27 248 0 145 -3 168 -27 248 -50 162
-124 284 -243 398 -115 109 -219 170 -371 215 -113 34 -318 42 -428 18z m-45
-879 l0 -375 -75 0 -75 0 0 375 0 375 75 0 75 0 0 -375z m600 300 l0 -75 -225
0 -225 0 0 75 0 75 225 0 225 0 0 -75z m0 -300 l0 -75 -225 0 -225 0 0 75 0
75 225 0 225 0 0 -75z m0 -300 l0 -75 -225 0 -225 0 0 75 0 75 225 0 225 0 0
-75z"/>
</g>
</svg>
