<?xml version="1.0" standalone="no"?>
<!DOCTYPE svg PUBLIC "-//W3C//DTD SVG 20010904//EN"
 "http://www.w3.org/TR/2001/REC-SVG-20010904/DTD/svg10.dtd">
<svg version="1.0" xmlns="http://www.w3.org/2000/svg"
 width="2560.000000pt" height="1755.000000pt" viewBox="0 0 2560.000000 1755.000000"
 preserveAspectRatio="xMidYMid meet">

<g transform="translate(0.000000,1755.000000) scale(0.100000,-0.100000)"
fill="#000000" stroke="none">
<path d="M6462 17539 c-265 -25 -558 -113 -802 -240 -273 -143 -758 -538
-1339 -1091 l-154 -147 -66 -11 c-314 -52 -768 -156 -1070 -245 -1509 -441
-2369 -1177 -2747 -2349 -174 -542 -250 -1115 -274 -2086 -13 -535 -13 -9610
0 -9720 16 -128 47 -234 100 -345 186 -386 601 -621 1193 -676 164 -15 545 -6
682 16 622 99 1006 392 1124 856 15 58 28 167 42 354 81 1099 220 2757 289
3435 11 107 26 272 35 365 85 951 339 1477 829 1715 209 101 381 134 706 135
129 0 243 -3 253 -7 16 -7 17 -132 17 -2429 0 -2142 2 -2434 16 -2528 30 -205
74 -343 165 -521 282 -547 907 -909 1826 -1060 72 -12 73 -12 122 -73 55 -69
189 -202 266 -264 255 -206 665 -388 1100 -487 664 -151 1587 -177 2335 -65
519 78 970 233 1294 446 392 257 640 609 726 1033 38 190 40 263 40 1822 l0
1521 48 -6 c270 -35 379 -47 507 -57 83 -6 173 -13 202 -16 l52 -5 4 -1152 c3
-1035 5 -1161 20 -1237 93 -464 323 -806 719 -1070 357 -237 803 -388 1397
-470 l153 -22 72 -60 c423 -359 1113 -580 1991 -638 195 -13 779 -13 965 0
671 47 1185 169 1602 382 218 111 376 226 534 390 193 201 313 419 385 701 50
199 49 68 49 3420 0 2001 -3 3135 -10 3146 -7 14 4 49 46 147 154 357 263 775
315 1209 40 325 37 917 -7 1345 -91 910 -351 1776 -742 2473 -40 70 -72 130
-72 132 0 3 288 5 639 5 l639 0 35 -48 c96 -130 317 -310 557 -454 419 -252
743 -350 1053 -318 266 27 471 125 588 280 91 121 125 259 96 396 -9 44 -19
89 -22 100 -6 20 0 24 62 44 381 125 596 377 543 635 -50 241 -293 424 -698
525 l-43 11 8 37 c4 20 7 71 6 114 -2 136 -52 249 -157 354 -154 153 -374 224
-655 211 -321 -15 -584 -135 -983 -447 -99 -78 -310 -286 -358 -352 l-33 -48
-1035 0 -1034 0 -139 134 c-1045 1012 -2540 1624 -4324 1770 -403 34 -654 39
-1535 33 -926 -7 -1647 -20 -3249 -59 l-495 -11 -15 24 c-71 108 -218 287
-331 400 -374 375 -800 585 -1307 644 -300 35 -667 3 -936 -81 -94 -30 -285
-105 -401 -158 l-79 -36 -76 44 c-386 226 -829 327 -1259 285z m351 -404 c142
-9 316 -52 475 -117 28 -12 52 -24 52 -27 0 -3 -51 -33 -113 -65 -220 -115
-749 -424 -1072 -624 -50 -31 -52 -32 -280 -47 -280 -18 -516 -38 -778 -66
-109 -11 -201 -19 -203 -16 -11 11 434 392 636 546 310 236 503 330 800 391
97 20 312 40 370 34 14 -2 65 -6 113 -9z m2297 -46 c432 -40 794 -211 1102
-521 651 -657 1021 -1947 1045 -3648 6 -401 -2 -608 -33 -875 -122 -1065 -545
-1716 -1306 -2009 -185 -71 -308 -102 -636 -161 -557 -99 -916 -372 -1037
-789 -50 -176 -52 -410 -4 -496 44 -77 144 -121 228 -100 67 17 108 46 139 98
26 45 27 52 24 163 -5 219 39 342 172 474 90 90 186 146 332 195 74 25 298 76
423 95 l43 7 -6 -28 c-66 -322 -258 -1329 -258 -1356 1 -55 27 -97 75 -119 38
-17 69 -19 340 -19 185 0 315 4 342 11 48 12 118 66 140 108 7 15 51 216 96
445 77 393 84 421 113 459 17 23 54 52 81 66 l49 26 521 6 c455 6 536 9 650
27 344 54 571 145 808 323 243 183 444 424 567 682 128 267 200 608 187 887
-10 215 -49 366 -140 544 -102 200 -215 315 -396 406 -219 109 -477 161 -950
190 -78 5 -146 11 -149 15 -3 3 0 74 6 158 36 464 -10 1334 -104 1972 -91 617
-247 1178 -447 1618 l-36 77 32 0 c18 0 313 7 657 15 2651 63 3708 68 4300 20
1229 -99 2304 -423 3178 -958 77 -47 132 -88 132 -97 0 -8 21 -28 48 -45 77
-49 309 -225 443 -336 262 -219 601 -578 825 -876 113 -150 366 -538 322 -493
-8 8 -60 67 -115 130 -278 317 -660 650 -1028 895 -260 173 -714 421 -733 400
-5 -5 -479 -644 -1052 -1420 -1037 -1401 -1043 -1409 -1031 -1440 64 -164 91
-298 91 -459 0 -161 -7 -208 -145 -912 -253 -1288 -243 -1243 -277 -1307 -39
-73 -113 -141 -198 -181 l-65 -31 -385 0 -385 0 -55 26 c-67 32 -123 87 -158
154 -44 87 -42 167 17 460 27 137 49 250 48 251 -1 1 -679 -914 -1507 -2033
-1481 -2003 -1505 -2034 -1534 -2029 -16 4 -43 13 -59 21 -17 9 -34 12 -38 8
-3 -5 -563 -741 -1244 -1638 -681 -896 -1239 -1632 -1241 -1634 -1 -2 -27 21
-56 51 -61 63 -141 112 -208 128 l-47 11 -43 112 c-58 150 -164 360 -241 477
-73 111 -212 253 -285 292 -156 84 -296 70 -447 -43 -75 -57 -180 -179 -247
-287 -27 -44 -50 -70 -57 -67 -49 18 -148 26 -205 16 -200 -35 -384 -199 -563
-501 l-55 -94 0 2482 c0 2059 -2 2488 -13 2515 -8 18 -32 49 -55 69 -138 125
-352 30 -352 -157 0 -30 -2 -55 -4 -55 -2 0 -69 23 -148 51 -328 115 -939 288
-1112 314 -25 4 -46 10 -45 14 0 3 33 30 74 60 580 421 989 1377 1032 2413 l6
156 69 27 c153 60 319 198 416 348 106 162 129 245 86 304 -30 42 -81 65 -131
60 -55 -6 -96 -37 -123 -94 -91 -195 -244 -335 -419 -387 -70 -21 -215 -21
-294 0 -120 31 -207 86 -324 205 l-82 83 -60 4 c-60 4 -62 4 -100 -35 -49 -49
-60 -96 -35 -149 45 -94 250 -261 401 -327 74 -33 203 -67 252 -67 63 0 63 1
51 -181 -77 -1161 -563 -2079 -1223 -2307 l-102 -36 -270 -7 c-344 -9 -493
-33 -715 -116 -698 -260 -1091 -917 -1194 -1993 -102 -1051 -125 -1309 -191
-2090 -24 -294 -67 -827 -95 -1185 -28 -357 -54 -702 -59 -765 -33 -402 -270
-619 -776 -711 -100 -19 -159 -22 -360 -23 -351 -1 -548 35 -760 138 -208 103
-320 232 -382 441 -16 56 -18 186 -24 1840 -4 979 -12 2007 -18 2285 -22 1075
-9 5217 19 5765 35 712 117 1297 236 1699 80 271 217 582 347 788 627 991
1894 1554 4027 1792 124 14 257 28 297 32 l72 6 -25 -47 c-57 -114 -6 -247
112 -285 22 -7 61 -10 96 -7 55 5 71 13 256 135 693 455 1374 859 1887 1117
491 248 747 338 1041 364 143 12 215 12 344 0z m15176 -2114 c57 -17 127 -63
144 -96 15 -26 15 -101 1 -127 -9 -17 -26 -20 -163 -26 -253 -12 -593 -51
-873 -100 -44 -8 -81 -13 -83 -11 -5 4 152 125 238 182 222 149 394 207 590
198 52 -2 118 -11 146 -20z m454 -688 c261 -56 467 -168 431 -235 -61 -113
-362 -220 -684 -240 -424 -28 -1273 89 -1635 225 l-43 16 33 14 c57 25 257 80
423 117 252 56 517 96 860 130 22 2 144 2 270 1 200 -3 245 -6 345 -28z
m-1245 -812 c333 -47 701 -77 915 -74 l135 2 28 -53 c32 -63 33 -84 8 -126
-27 -44 -78 -80 -147 -105 -85 -30 -272 -37 -385 -14 -187 38 -467 174 -714
348 -88 62 -87 61 -45 53 19 -4 112 -17 205 -31z m-3780 -1113 c50 -7 140 -19
200 -28 198 -27 445 -99 590 -171 267 -134 453 -354 565 -668 53 -150 71 -253
77 -440 17 -504 -139 -982 -445 -1369 -76 -97 -249 -268 -352 -348 -264 -205
-536 -321 -891 -377 -207 -34 -345 -41 -779 -41 -228 0 -420 -4 -426 -8 -6 -4
-46 -187 -89 -407 -89 -459 -98 -487 -194 -579 -70 -66 -139 -101 -231 -115
-84 -14 -586 -14 -669 -1 -83 14 -146 47 -202 107 -55 59 -89 142 -89 217 0
30 150 818 334 1762 184 940 355 1817 381 1949 34 179 54 256 76 302 47 98
148 186 252 219 58 18 1755 15 1892 -4z m-7856 -859 c385 -62 528 -250 491
-645 -39 -414 -201 -755 -428 -899 -177 -112 -614 -189 -1072 -189 -102 0
-133 4 -167 20 -49 22 -83 70 -83 116 0 27 9 38 57 75 263 199 474 449 633
751 125 240 199 447 274 771 l7 28 97 -6 c53 -4 139 -13 191 -22z m-5847
-4148 c247 -62 858 -255 1016 -320 l32 -14 0 -2108 -1 -2108 -24 94 c-82 315
-185 545 -302 672 -51 54 -57 66 -93 188 -124 411 -296 699 -467 782 -67 33
-160 33 -228 0 -57 -28 -165 -132 -213 -205 l-32 -49 0 1570 0 1571 85 -18
c46 -11 149 -35 227 -55z m115 -2946 c107 -52 241 -286 347 -604 20 -60 36
-110 36 -111 0 -1 -17 -5 -37 -9 -181 -33 -353 -309 -468 -750 -103 -393 -122
-706 -54 -903 10 -30 19 -57 19 -59 0 -12 -47 2 -106 32 -201 101 -339 323
-390 626 -48 290 38 825 208 1279 94 253 201 431 296 491 54 34 90 36 149 8z
m8701 -59 c1 0 23 -19 49 -42 102 -95 202 -285 299 -572 19 -55 33 -100 31
-101 -1 0 -29 -9 -62 -19 -50 -16 -71 -30 -131 -90 -39 -39 -90 -104 -113
-145 -124 -212 -239 -598 -282 -944 -21 -174 -1 -400 46 -520 7 -17 5 -17 -44
2 -77 29 -135 66 -195 125 -177 172 -281 483 -262 786 24 394 152 897 307
1215 116 238 223 341 324 313 16 -4 31 -8 33 -8z m2856 -740 c112 -56 249
-233 361 -465 64 -132 135 -305 135 -327 0 -7 -20 -26 -45 -41 -209 -132 -428
-604 -525 -1129 -10 -57 -23 -157 -30 -222 -25 -276 44 -524 202 -723 l58 -73
-27 -11 c-118 -45 -295 -56 -412 -25 -326 87 -577 385 -666 791 -22 100 -30
328 -16 460 72 659 356 1425 624 1683 119 114 226 139 341 82z m-11108 -81
c133 -82 312 -536 379 -959 22 -140 23 -344 1 -435 -35 -151 -95 -262 -185
-348 -85 -81 -154 -111 -256 -112 -71 0 -88 4 -149 34 -223 110 -344 408 -307
756 47 443 244 974 394 1066 41 25 81 24 123 -2z m2407 -66 c145 -78 317 -332
445 -658 60 -151 59 -139 9 -168 -188 -110 -389 -507 -501 -987 -47 -205 -60
-307 -61 -480 0 -149 3 -174 27 -263 36 -128 88 -232 166 -335 35 -46 61 -86
58 -89 -15 -15 -152 -45 -231 -50 -192 -11 -379 61 -537 207 -170 156 -283
371 -334 636 -100 518 233 1700 584 2075 40 43 89 88 108 100 90 55 179 59
267 12z m6270 13 c162 -67 376 -635 416 -1101 30 -340 -89 -620 -308 -728 -58
-28 -75 -32 -146 -32 -71 0 -89 4 -147 33 -120 59 -224 196 -278 367 -31 96
-38 326 -16 473 69 454 261 927 401 988 38 17 39 17 78 0z m1693 -278 c3 -4
-10 -42 -30 -85 -181 -401 -319 -938 -345 -1342 -19 -288 35 -559 154 -778 40
-72 40 -72 -64 -47 -96 23 -255 104 -333 168 -121 100 -221 258 -264 416 -13
48 -18 101 -17 200 0 161 27 308 98 528 190 591 480 964 737 949 32 -2 60 -6
64 -9z m-8704 -145 c5 -2 -1 -21 -12 -42 -73 -145 -201 -513 -259 -751 -156
-637 -144 -1034 43 -1397 l42 -81 -35 5 c-20 3 -76 18 -126 35 -274 89 -479
313 -540 592 -22 99 -16 296 14 435 131 611 460 1154 733 1211 40 8 123 4 140
-7z m10133 -367 c19 -8 57 -36 85 -62 226 -211 467 -941 447 -1354 -7 -145
-26 -218 -90 -350 -185 -379 -595 -464 -878 -180 -61 60 -86 95 -123 170 -67
138 -86 212 -93 365 -9 209 35 460 133 755 88 263 192 466 297 578 80 84 148
108 222 78z m-8680 -156 c214 -133 453 -722 505 -1249 46 -460 -225 -851 -589
-851 -142 0 -262 52 -372 160 -119 117 -196 286 -220 480 -38 314 132 954 340
1278 59 91 155 187 204 201 41 12 93 5 132 -19z m-2616 -905 c7 -38 21 -104
31 -145 10 -41 18 -75 17 -77 -6 -5 -279 69 -379 104 l-106 37 81 39 c114 55
225 167 287 289 l45 88 6 -133 c4 -72 12 -163 18 -202z"/>
<path d="M3275 14044 c-396 -41 -701 -142 -960 -317 -117 -79 -301 -263 -338
-336 -46 -94 -30 -187 44 -258 46 -44 97 -63 166 -63 74 1 130 26 179 82 105
117 257 259 334 310 262 174 608 289 958 318 171 15 337 1 496 -40 132 -34
189 -37 244 -15 76 32 101 83 66 133 -20 28 -55 46 -151 77 -240 75 -448 106
-758 110 -132 2 -258 1 -280 -1z"/>
<path d="M14309 13286 c-52 -18 -94 -51 -119 -91 -17 -27 -106 -464 -401
-1968 -208 -1062 -379 -1953 -379 -1980 0 -40 5 -53 34 -85 l34 -37 341 -3
c323 -3 342 -2 379 17 45 23 93 74 110 117 6 16 102 493 212 1059 110 567 208
1047 217 1068 19 43 71 93 119 113 26 11 112 14 402 14 490 0 591 -17 681
-115 52 -57 66 -121 58 -275 -8 -153 -14 -182 -188 -1075 -109 -556 -150 -781
-146 -813 3 -32 13 -53 36 -76 l31 -31 338 -3 c212 -2 350 1 372 7 46 14 103
62 124 105 16 34 368 1808 386 1947 22 174 9 335 -39 477 -56 161 -159 293
-278 355 -229 118 -544 161 -1263 174 -277 4 -361 9 -383 20 -37 19 -67 69
-67 114 0 19 34 208 75 419 41 211 75 402 75 423 0 54 -31 101 -80 121 -34 13
-88 16 -343 16 -220 -1 -312 -4 -338 -14z"/>
<path d="M4005 12835 c-318 -58 -735 -233 -930 -392 -124 -101 -231 -271 -276
-438 -31 -114 -31 -317 0 -429 27 -103 80 -209 134 -271 24 -28 60 -84 81
-126 89 -182 265 -310 485 -355 111 -22 302 -15 416 15 115 31 285 118 382
195 150 120 267 291 314 461 26 94 30 239 9 325 -42 179 -165 332 -335 417
-108 55 -189 75 -325 80 -148 6 -259 -11 -393 -62 -49 -18 -85 -29 -80 -25 4
5 85 56 179 113 313 191 449 293 521 390 67 92 57 118 -46 116 -37 0 -97 -7
-136 -14z m80 -679 c289 -99 438 -365 368 -659 l-17 -72 -7 80 c-25 276 -247
489 -494 473 -116 -8 -209 -62 -270 -158 -48 -76 -51 -72 105 -150 77 -39 139
-74 136 -78 -3 -5 -61 -48 -130 -97 l-125 -88 24 -46 c94 -186 330 -293 521
-236 l49 14 -45 -39 c-25 -21 -74 -56 -110 -78 -302 -181 -665 -160 -876 52
-120 121 -160 230 -152 416 4 87 10 119 37 186 81 208 278 394 496 469 104 35
168 45 290 41 99 -2 134 -8 200 -30z m169 -426 c90 -79 93 -268 5 -278 -67 -7
-139 96 -139 199 0 104 63 141 134 79z"/>
<path d="M17910 12181 c-77 -16 -147 -76 -169 -143 -5 -18 -179 -897 -386
-1953 -269 -1369 -375 -1932 -372 -1963 5 -49 35 -87 84 -108 50 -21 624 -20
684 1 54 20 106 67 129 120 10 22 53 218 95 435 42 217 83 407 91 422 18 36
70 84 114 105 31 16 87 19 555 24 463 6 535 9 657 28 394 62 653 180 928 423
354 312 563 721 621 1212 19 161 7 408 -26 536 -73 283 -223 504 -422 622
-193 115 -416 177 -783 220 -171 19 -245 21 -975 24 -434 1 -806 -1 -825 -5z
m1587 -675 c341 -61 480 -198 500 -491 9 -140 -21 -341 -77 -527 -85 -276
-231 -473 -417 -560 -207 -97 -594 -158 -1005 -158 -94 0 -138 4 -168 16 -44
18 -77 56 -86 101 -6 32 269 1459 291 1508 24 53 76 100 132 121 53 20 708 12
830 -10z"/>
<path d="M18723 11318 c-6 -7 -67 -308 -137 -668 -70 -360 -129 -661 -132
-669 -4 -12 26 -13 193 -8 358 11 668 70 809 152 183 108 336 476 338 820 2
229 -42 292 -236 344 -115 31 -245 41 -546 41 -212 0 -282 -3 -289 -12z"/>
</g>
</svg>
